<?xml version="1.0" encoding="UTF-8"?>
<svg id="_レイヤー_2" data-name="レイヤー 2" xmlns="http://www.w3.org/2000/svg" xmlns:xlink="http://www.w3.org/1999/xlink" viewBox="0 0 171.42 153.46">
  <defs>
    <style>
      .cls-1 {
        fill: #1a48ad;
      }

      .cls-2 {
        fill: url(#_名称未設定グラデーション_19);
      }
    </style>
    <linearGradient id="_名称未設定グラデーション_19" data-name="名称未設定グラデーション 19" x1="3.2" y1="21.69" x2="72.89" y2="140.81" gradientUnits="userSpaceOnUse">
      <stop offset="0" stop-color="#0086b3"/>
      <stop offset=".5" stop-color="#09c"/>
      <stop offset="1" stop-color="#0086b3"/>
    </linearGradient>
  </defs>
  <g id="_レイヤー_1-2" data-name="レイヤー 1">
    <g>
      <path class="cls-2" d="M77.92,133.22l-1.17.53c-.15.17-.31.34-.48.52-2.41,2.58-5.22,4.78-8.33,6.51-3.18,1.79-6.67,3.08-10.36,3.76-2.06.38-4.18.58-6.36.58-4.54,0-8.87-.88-12.84-2.49-1.48-.58-2.9-1.27-4.28-2.08l-.02-.02c-2.3-1.53-4.52-3.18-6.62-4.97-.03-.02-.05-.03-.07-.05-.43-.41-.84-.82-1.24-1.25h-.22c-2.39-2.11-4.64-4.37-6.74-6.74-3.37-3.83-6.38-7.99-8.94-12.44-3.44-5.95-6.1-12.39-7.84-19.2-1.58-6.12-2.42-12.53-2.42-19.14v-.03c0-6.63.84-13.06,2.44-19.2.19-.76.4-1.5.62-2.23v-.03c.15-.55.33-1.08.5-1.62,5.1-15.59,19.97-26.84,37.5-26.84,5.04,0,9.85.93,14.26,2.65-3.68,2.56-7.06,5.55-10.05,8.9-2.61,2.92-4.91,6.12-6.89,9.52-1.77,3.06-3.27,6.27-4.47,9.66-2.11,6-3.28,12.46-3.28,19.2v.05c0,2.15.12,4.28.34,6.38.41,3.69,1.17,7.29,2.23,10.72.21.69.43,1.36.67,2.03,1.2,3.4,2.72,6.67,4.5,9.76,1.96,3.39,4.24,6.55,6.82,9.43,2.42,2.73,5.09,5.21,7.97,7.41l.02.02c1.41,1.1,2.87,2.11,4.38,3.06,5.6,3.56,12.99,6.07,19.75,7.51.21.05.41.1.6.14Z"/>
      <path class="cls-1" d="M143.75,44.73h-63.1c-.46,0-.88-.19-1.19-.5-.74-2.05-1.65-4.02-2.72-5.88l-.02-.02c-6.74-11.84-19.59-19.83-34.34-19.83-8.66,0-16.67,2.75-23.17,7.41,2.13-2.39,4.4-4.66,6.81-6.77,3.8-3.35,7.92-6.32,12.34-8.87,5.95-3.44,12.39-6.1,19.2-7.85,6.14-1.58,12.56-2.42,19.18-2.42s13.06.84,19.2,2.42c6.81,1.75,13.27,4.42,19.2,7.87,4.4,2.54,8.52,5.52,12.3,8.85,2.44,2.15,4.74,4.45,6.87,6.87,3.35,3.8,6.32,7.92,8.87,12.32.74,1.27,1.44,2.56,2.1,3.87.58,1.15-.24,2.53-1.53,2.53Z"/>
      <path class="cls-1" d="M171.42,95.2c0,.38-.31.69-.7.69h-32.57c-1.07,0-1.86.96-1.67,2.03.4,2.37.6,4.81.6,7.3,0,.84-.02,1.67-.07,2.49-.14,2.53-.5,4.98-1.07,7.37-.41,1.87-.96,3.69-1.63,5.46-1.91,5.09-4.74,9.73-8.3,13.71-3.11,3.51-6.79,6.5-10.88,8.85v.09c-5.93,3.45-12.39,6.12-19.2,7.87-5.4,1.39-11.03,2.22-16.82,2.39h-4.74c-5.79-.17-11.41-1-16.81-2.39-6.81-1.75-13.25-4.42-19.2-7.85-1.46-.84-2.89-1.72-4.28-2.66,1.37.81,2.8,1.5,4.28,2.08,3.97,1.62,8.3,2.49,12.84,2.49,2.18,0,4.3-.21,6.36-.58,3.69-.69,7.18-1.98,10.36-3.76,3.11-1.74,5.93-3.94,8.33-6.51.17-.17.33-.34.48-.52.12-.14.22-.26.33-.4h.02c4.36-5.02,7.3-11.31,8.16-18.27.19-1.39.27-2.82.27-4.26,0-4.97-1.07-9.68-2.96-13.94-.28-.62-.89-1-1.58-1h-21.45c-.38,0-.69-.31-.69-.69,0-.19.07-.36.21-.48.05-.07.14-.12.21-.15l13.59-10.35,3.88-2.96,5.98-4.55,13.22-10.07,5.71-4.33,6.29-4.79,6.17-4.69c.6-.48,1.46-.48,2.08,0l6.17,4.69,11.96,9.11,11.69,8.9,1.56,1.19,5.79,4.4v.02l.15.1,17.7,13.49c.14.12.21.29.21.48Z"/>
    </g>
  </g>
</svg>