<svg width="68" height="49" viewBox="0 0 68 49" fill="none" xmlns="http://www.w3.org/2000/svg">
<path d="M32.4166 24.8751L32.1982 24.974C32.1702 25.0058 32.1403 25.0375 32.1086 25.0711C31.6587 25.5529 31.1342 25.9636 30.5536 26.2867C29.9601 26.6209 29.3086 26.8618 28.6198 26.9887C28.2353 27.0597 27.8395 27.097 27.4326 27.097C26.5851 27.097 25.7769 26.9327 25.0358 26.6321C24.7596 26.5238 24.4945 26.395 24.2369 26.2437L24.2332 26.24C23.8038 25.9543 23.3894 25.6462 22.9974 25.312C22.9918 25.3083 22.9881 25.3064 22.9844 25.3027C22.9041 25.2261 22.8276 25.1495 22.7529 25.0692H22.7118C22.2657 24.6753 21.8457 24.2533 21.4537 23.8107C20.8247 23.0956 20.2628 22.3188 19.7849 21.4879C19.1428 20.3769 18.6463 19.1744 18.3215 17.9029C18.0265 16.7601 17.8698 15.5633 17.8698 14.329V14.3234C17.8698 13.0855 18.0265 11.8848 18.3252 10.7384C18.3607 10.5965 18.3999 10.4583 18.4409 10.322V10.3164C18.4689 10.2137 18.5025 10.1147 18.5343 10.0139C19.4863 7.10289 22.262 5.00227 25.5342 5.00227C26.475 5.00227 27.3729 5.17592 28.1961 5.49709C27.5091 5.97509 26.8782 6.53339 26.3201 7.15891C25.8329 7.70414 25.4036 8.30165 25.034 8.9365C24.7036 9.50787 24.4236 10.1072 24.1996 10.7402C23.8057 11.8606 23.5873 13.0668 23.5873 14.3253V14.3346C23.5873 14.7361 23.6097 15.1338 23.6508 15.5259C23.7273 16.2149 23.8692 16.8871 24.067 17.5276C24.1062 17.6564 24.1473 17.7815 24.1921 17.9066C24.4161 18.5415 24.6998 19.152 25.0321 19.729C25.398 20.362 25.8236 20.952 26.3051 21.4898C26.7569 21.9995 27.2553 22.4626 27.7929 22.8734L27.7966 22.8771C28.0598 23.0825 28.3323 23.2711 28.6142 23.4485C29.6595 24.1132 31.039 24.5819 32.3008 24.8508C32.34 24.8601 32.3774 24.8695 32.4128 24.8769L32.4166 24.8751Z" fill="url(#paint0_linear_2007_83)"/>
<path d="M44.7047 8.35206H32.9261C32.8402 8.35206 32.7618 8.31658 32.704 8.2587C32.5658 7.87592 32.396 7.50808 32.1962 7.16078L32.1925 7.15704C30.9344 4.94626 28.5357 3.45435 25.7824 3.45435C24.1659 3.45435 22.6707 3.96784 21.4574 4.83796C21.855 4.39169 22.2787 3.96784 22.7286 3.57385C23.4379 2.94834 24.207 2.39377 25.032 1.91763C26.1427 1.27531 27.3448 0.778629 28.616 0.451866C29.7621 0.156846 30.9605 0 32.1962 0C33.432 0 34.6341 0.156846 35.7802 0.451866C37.0514 0.778629 38.2573 1.27718 39.3642 1.92137C40.1855 2.39564 40.9546 2.95207 41.6602 3.57385C42.1156 3.9753 42.545 4.40476 42.9426 4.85663C43.5679 5.56617 44.1223 6.33547 44.5983 7.15704C44.7364 7.39418 44.8671 7.63505 44.9903 7.87965C45.0985 8.09438 44.9455 8.35206 44.7047 8.35206Z" fill="#1A48AD"/>
<path d="M49.8697 17.7759C49.8697 17.8469 49.8119 17.9047 49.7391 17.9047H43.6594C43.4597 17.9047 43.3122 18.084 43.3477 18.2838C43.4223 18.7263 43.4597 19.1819 43.4597 19.6469C43.4597 19.8037 43.4559 19.9587 43.4466 20.1118C43.4205 20.5842 43.3533 21.0417 43.2469 21.4879C43.1703 21.8371 43.0677 22.1769 42.9426 22.5074C42.5861 23.4578 42.0578 24.3242 41.3933 25.0674C40.8127 25.7228 40.1258 26.2811 39.3624 26.7199V26.7367C38.2554 27.3809 37.0496 27.8794 35.7784 28.2062C34.7704 28.4657 33.7195 28.6207 32.6387 28.6524H31.7539C30.6731 28.6207 29.624 28.4657 28.6161 28.2062C27.3449 27.8794 26.1427 27.3809 25.0321 26.7404C24.7595 26.5836 24.4926 26.4192 24.2332 26.2437C24.4889 26.395 24.7558 26.5238 25.0321 26.6321C25.7731 26.9346 26.5814 27.097 27.4289 27.097C27.8358 27.097 28.2315 27.0578 28.6161 26.9887C29.3048 26.8599 29.9563 26.619 30.5499 26.2867C31.1304 25.9618 31.6568 25.551 32.1048 25.0711C32.1366 25.0394 32.1664 25.0076 32.1944 24.974C32.2168 24.9479 32.2355 24.9255 32.256 24.8993H32.2598C33.0736 23.962 33.6224 22.7875 33.7829 21.4879C33.8184 21.2284 33.8333 20.9614 33.8333 20.6925C33.8333 19.7645 33.6336 18.885 33.2808 18.0896C33.2285 17.9738 33.1147 17.9029 32.9859 17.9029H28.9819C28.911 17.9029 28.8531 17.845 28.8531 17.774C28.8531 17.7386 28.8662 17.7068 28.8923 17.6844C28.9016 17.6713 28.9184 17.662 28.9315 17.6564L31.4683 15.7238L32.1926 15.1711L33.3088 14.3216L35.7765 12.4413L36.8424 11.6328L38.0165 10.7384L39.1682 9.86264C39.2802 9.77301 39.4408 9.77301 39.5565 9.86264L40.7082 10.7384L42.9407 12.4394L45.1228 14.1012L45.414 14.3234L46.4948 15.145V15.1487L46.5228 15.1674L49.8268 17.6863C49.8529 17.7087 49.866 17.7404 49.866 17.7759H49.8697Z" fill="#1A48AD"/>
<path d="M31.848 48.2844H28.312L25.48 45.1164H21.864V42.9884H26.376C27.592 42.9884 28.264 42.2684 28.264 41.0364C28.264 39.8044 27.56 39.1484 26.376 39.1484H20.408V48.2844H17.928V36.6524H26.376C29.096 36.6524 30.712 38.3324 30.712 40.9724C30.712 42.8764 29.816 44.2044 28.36 44.7804L31.848 48.2844Z" fill="#4B5563"/>
<path d="M41.7072 48.2844H38.8272C35.5152 48.2844 33.0832 45.7244 33.0832 42.3484C33.0832 38.9244 35.5152 36.6524 38.8272 36.6524H41.7072C45.1312 36.6524 47.4992 38.9724 47.4992 42.3484C47.4992 45.7244 45.0672 48.2844 41.7072 48.2844ZM38.8272 45.7884H41.7072C43.6432 45.7884 45.0032 44.3964 45.0032 42.4764C45.0032 40.5404 43.6432 39.1484 41.7072 39.1484H38.8272C36.9552 39.1484 35.5792 40.5404 35.5792 42.4764C35.5792 44.3964 36.9392 45.7884 38.8272 45.7884Z" fill="#4B5563"/>
<path d="M59.2436 47.6604L57.6756 44.6044L56.0596 47.6604C55.7716 48.2044 55.3076 48.4444 54.7956 48.4444C54.2516 48.4444 53.7876 48.1884 53.4996 47.6604L47.5796 36.6524H50.5556L54.8756 44.9404L56.4116 42.1884L53.5476 36.6524H56.5396L60.6036 44.9404L64.9396 36.6524H67.7396L61.8036 47.6604C61.5156 48.1884 61.0516 48.4444 60.5236 48.4444C59.9956 48.4444 59.5156 48.2044 59.2436 47.6604Z" fill="#4B5563"/>
<path d="M15 48.6524H6.68944C2.8323 48.6524 0 46.0114 0 42.5286C0 38.9963 2.8323 36.6524 6.68944 36.6524H14.1615V39.2274H6.68944C4.50932 39.2274 2.90683 40.6634 2.90683 42.6607C2.90683 44.6414 4.49068 46.0775 6.68944 46.0775H12.0932V43.5685H6.37267V41.5383H15V48.6524Z" fill="#4B5563"/>
<defs>
<linearGradient id="paint0_linear_2007_83" x1="18.4689" y1="4.04999" x2="31.4854" y2="26.2888" gradientUnits="userSpaceOnUse">
<stop stop-color="#0086B3"/>
<stop offset="0.5" stop-color="#0099CC"/>
<stop offset="1" stop-color="#0086B3"/>
</linearGradient>
</defs>
</svg>
