<svg width="108" height="29" viewBox="0 0 108 29" fill="none" xmlns="http://www.w3.org/2000/svg">
<path d="M14.5468 24.8751L14.3284 24.974C14.3004 25.0058 14.2705 25.0375 14.2388 25.0711C13.789 25.5529 13.2644 25.9636 12.6839 26.2867C12.0903 26.6209 11.4388 26.8618 10.75 26.9887C10.3655 27.0597 9.96978 27.097 9.56285 27.097C8.71539 27.097 7.90713 26.9327 7.16607 26.6321C6.88981 26.5238 6.62474 26.395 6.36715 26.2437L6.36341 26.24C5.93408 25.9543 5.51969 25.6462 5.12769 25.312C5.12209 25.3083 5.11836 25.3064 5.11462 25.3027C5.03436 25.2261 4.95783 25.1495 4.88316 25.0692H4.84209C4.39596 24.6753 3.97597 24.2533 3.58397 23.8107C2.95491 23.0956 2.39305 22.3188 1.91518 21.4879C1.27306 20.3769 0.776527 19.1744 0.45173 17.9029C0.156799 16.7601 0 15.5633 0 14.329V14.3234C0 13.0855 0.156799 11.8848 0.455463 10.7384C0.490929 10.5965 0.530129 10.4583 0.571195 10.322V10.3164C0.599195 10.2137 0.632795 10.1147 0.664528 10.0139C1.61652 7.10289 4.39223 5.00227 7.66447 5.00227C8.60526 5.00227 9.50312 5.17592 10.3263 5.49709C9.63939 5.97509 9.00846 6.53339 8.45033 7.15891C7.96313 7.70414 7.5338 8.30165 7.16421 8.9365C6.83381 9.50787 6.55381 10.1072 6.32981 10.7402C5.93595 11.8606 5.71755 13.0668 5.71755 14.3253V14.3346C5.71755 14.7361 5.73995 15.1338 5.78102 15.5259C5.85755 16.2149 5.99942 16.8871 6.19728 17.5276C6.23648 17.6564 6.27755 17.7815 6.32235 17.9066C6.54635 18.5415 6.83008 19.152 7.16234 19.729C7.5282 20.362 7.9538 20.952 8.4354 21.4898C8.88713 21.9995 9.38552 22.4626 9.92312 22.8734L9.92685 22.8771C10.19 23.0825 10.4626 23.2711 10.7444 23.4485C11.7898 24.1132 13.1692 24.5819 14.4311 24.8508C14.4703 24.8601 14.5076 24.8695 14.5431 24.8769L14.5468 24.8751Z" fill="url(#paint0_linear_2007_82)"/>
<path d="M26.8349 8.35206H15.0564C14.9705 8.35206 14.8921 8.31658 14.8342 8.2587C14.6961 7.87592 14.5262 7.50808 14.3265 7.16078L14.3228 7.15704C13.0646 4.94626 10.666 3.45435 7.91268 3.45435C6.29616 3.45435 4.80097 3.96784 3.58765 4.83796C3.98524 4.39169 4.40897 3.96784 4.85884 3.57385C5.56816 2.94834 6.33722 2.39377 7.16228 1.91763C8.27294 1.27531 9.47506 0.778629 10.7463 0.451866C11.8924 0.156846 13.0908 0 14.3265 0C15.5622 0 16.7643 0.156846 17.9105 0.451866C19.1817 0.778629 20.3875 1.27718 21.4944 1.92137C22.3158 2.39564 23.0848 2.95207 23.7904 3.57385C24.2459 3.9753 24.6752 4.40476 25.0728 4.85663C25.6981 5.56617 26.2525 6.33547 26.7285 7.15704C26.8667 7.39418 26.9973 7.63505 27.1205 7.87965C27.2288 8.09438 27.0757 8.35206 26.8349 8.35206Z" fill="#1A48AD"/>
<path d="M32 17.7759C32 17.8469 31.9421 17.9047 31.8693 17.9047H25.7896C25.5899 17.9047 25.4424 18.084 25.4779 18.2838C25.5526 18.7263 25.5899 19.1819 25.5899 19.6469C25.5899 19.8037 25.5862 19.9587 25.5768 20.1118C25.5507 20.5842 25.4835 21.0417 25.3771 21.4879C25.3006 21.8371 25.1979 22.1769 25.0728 22.5074C24.7163 23.4578 24.1881 24.3242 23.5235 25.0674C22.943 25.7228 22.2561 26.2811 21.4926 26.7199V26.7367C20.3857 27.3809 19.1798 27.8794 17.9086 28.2062C16.9006 28.4657 15.8497 28.6207 14.7689 28.6524H13.8841C12.8033 28.6207 11.7543 28.4657 10.7463 28.2062C9.47511 27.8794 8.27299 27.3809 7.16233 26.7404C6.8898 26.5836 6.62287 26.4193 6.3634 26.2437C6.61913 26.395 6.88607 26.5238 7.16233 26.6321C7.90339 26.9346 8.71165 27.0971 9.55911 27.0971C9.96604 27.0971 10.3618 27.0578 10.7463 26.9888C11.4351 26.8599 12.0866 26.619 12.6801 26.2867C13.2607 25.9618 13.7871 25.551 14.2351 25.0711C14.2668 25.0394 14.2967 25.0076 14.3247 24.974C14.3471 24.9479 14.3657 24.9255 14.3863 24.8993H14.39C15.2039 23.962 15.7527 22.7875 15.9132 21.4879C15.9487 21.2284 15.9636 20.9614 15.9636 20.6925C15.9636 19.7645 15.7639 18.885 15.4111 18.0896C15.3588 17.9738 15.2449 17.9029 15.1161 17.9029H11.1122C11.0412 17.9029 10.9834 17.845 10.9834 17.774C10.9834 17.7386 10.9964 17.7068 11.0226 17.6844C11.0319 17.6713 11.0487 17.662 11.0618 17.6564L13.5985 15.7238L14.3228 15.1711L15.4391 14.3216L17.9068 12.4413L18.9726 11.6328L20.1468 10.7384L21.2985 9.86265C21.4105 9.77302 21.571 9.77302 21.6867 9.86265L22.8385 10.7384L25.071 12.4394L27.2531 14.1012L27.5443 14.3234L28.6251 15.145V15.1487L28.6531 15.1674L31.9571 17.6863C31.9832 17.7087 31.9963 17.7404 31.9963 17.7759H32Z" fill="#1A48AD"/>
<path d="M71.848 19.9582H68.312L65.48 16.7902H61.864V14.6622H66.376C67.592 14.6622 68.264 13.9422 68.264 12.7102C68.264 11.4782 67.56 10.8222 66.376 10.8222H60.408V19.9582H57.928V8.32622H66.376C69.096 8.32622 70.712 10.0062 70.712 12.6462C70.712 14.5502 69.816 15.8782 68.36 16.4542L71.848 19.9582Z" fill="#4B5563"/>
<path d="M81.7072 19.9582H78.8272C75.5152 19.9582 73.0832 17.3982 73.0832 14.0222C73.0832 10.5982 75.5152 8.32622 78.8272 8.32622H81.7072C85.1312 8.32622 87.4992 10.6462 87.4992 14.0222C87.4992 17.3982 85.0672 19.9582 81.7072 19.9582ZM78.8272 17.4622H81.7072C83.6432 17.4622 85.0032 16.0702 85.0032 14.1502C85.0032 12.2142 83.6432 10.8222 81.7072 10.8222H78.8272C76.9552 10.8222 75.5792 12.2142 75.5792 14.1502C75.5792 16.0702 76.9392 17.4622 78.8272 17.4622Z" fill="#4B5563"/>
<path d="M99.2436 19.3342L97.6756 16.2782L96.0596 19.3342C95.7716 19.8782 95.3076 20.1182 94.7956 20.1182C94.2516 20.1182 93.7876 19.8622 93.4996 19.3342L87.5796 8.32622H90.5556L94.8756 16.6142L96.4116 13.8622L93.5476 8.32622H96.5396L100.604 16.6142L104.94 8.32622H107.74L101.804 19.3342C101.516 19.8622 101.052 20.1182 100.524 20.1182C99.9956 20.1182 99.5156 19.8782 99.2436 19.3342Z" fill="#4B5563"/>
<path d="M55 20.3262H46.6894C42.8323 20.3262 40 17.6852 40 14.2024C40 10.6701 42.8323 8.32622 46.6894 8.32622H54.1615V10.9012H46.6894C44.5093 10.9012 42.9068 12.3372 42.9068 14.3345C42.9068 16.3152 44.4907 17.7513 46.6894 17.7513H52.0932V15.2423H46.3727V13.2121H55V20.3262Z" fill="#4B5563"/>
<defs>
<linearGradient id="paint0_linear_2007_82" x1="0.599195" y1="4.04999" x2="13.6156" y2="26.2888" gradientUnits="userSpaceOnUse">
<stop stop-color="#0086B3"/>
<stop offset="0.5" stop-color="#0099CC"/>
<stop offset="1" stop-color="#0086B3"/>
</linearGradient>
</defs>
</svg>
