<svg width="25" height="24" viewBox="0 0 25 24" fill="none" xmlns="http://www.w3.org/2000/svg">
<path d="M19.8031 13.6V18.7552C19.8033 18.9187 19.7712 19.0806 19.7087 19.2317C19.6462 19.3828 19.5545 19.5201 19.4389 19.6357C19.3232 19.7513 19.186 19.843 19.0349 19.9055C18.8838 19.968 18.7219 20.0001 18.5583 20H6.11461C5.9511 20.0001 5.78917 19.968 5.63808 19.9055C5.48699 19.843 5.34971 19.7513 5.23409 19.6357C5.11847 19.5201 5.02679 19.3828 4.96428 19.2317C4.90177 19.0806 4.86967 18.9187 4.86981 18.7552V6.31147C4.86967 6.14796 4.90177 5.98603 4.96428 5.83494C5.02679 5.68385 5.11847 5.54657 5.23409 5.43095C5.34971 5.31533 5.48699 5.22364 5.63808 5.16114C5.78917 5.09863 5.9511 5.06653 6.11461 5.06667H11.0405M14.7173 4H20.8698V10.1525M12.4549 12.4149L20.7514 4.1184" stroke="#6B7280" stroke-width="2" stroke-linecap="round" stroke-linejoin="round"/>
</svg>
