<svg width="56" height="56" viewBox="0 0 56 56" fill="none" xmlns="http://www.w3.org/2000/svg">
<path d="M44.3333 6.99996H36.6847C36.2783 6.29286 35.6932 5.70506 34.988 5.29551C34.2827 4.88597 33.4822 4.66909 32.6667 4.66663H23.3333C22.5178 4.66909 21.7173 4.88597 21.012 5.29551C20.3068 5.70506 19.7217 6.29286 19.3153 6.99996H11.6667C10.429 6.99996 9.242 7.49162 8.36683 8.36679C7.49167 9.24196 7 10.4289 7 11.6666V46.6666C7 47.9043 7.49167 49.0913 8.36683 49.9665C9.242 50.8416 10.429 51.3333 11.6667 51.3333H44.3333C45.571 51.3333 46.758 50.8416 47.6332 49.9665C48.5083 49.0913 49 47.9043 49 46.6666V11.6666C49 10.4289 48.5083 9.24196 47.6332 8.36679C46.758 7.49162 45.571 6.99996 44.3333 6.99996ZM23.3333 9.33329H32.6667V16.3333H23.3333V9.33329ZM36.6333 28.6743L27.3583 37.674C26.9229 38.0966 26.34 38.333 25.7332 38.333C25.1264 38.333 24.5434 38.0966 24.108 37.674L19.3667 33.0913C19.1467 32.8768 18.9711 32.6211 18.8499 32.3387C18.7287 32.0564 18.6643 31.7529 18.6604 31.4457C18.6565 31.1384 18.7132 30.8334 18.8271 30.5481C18.9411 30.2627 19.1102 30.0026 19.3247 29.7826C19.5392 29.5626 19.7949 29.387 20.0772 29.2658C20.3596 29.1447 20.6631 29.0803 20.9703 29.0764C21.2775 29.0725 21.5825 29.1291 21.8679 29.2431C22.1532 29.3571 22.4133 29.5261 22.6333 29.7406L25.732 32.7483L33.3853 25.326C33.6031 25.1026 33.8634 24.9252 34.1508 24.8042C34.4383 24.6832 34.7471 24.6211 35.059 24.6215C35.3709 24.6219 35.6795 24.6848 35.9667 24.8065C36.2539 24.9283 36.5137 25.1063 36.7309 25.3302C36.948 25.5541 37.1181 25.8192 37.231 26.1099C37.344 26.4007 37.3975 26.7111 37.3884 27.0228C37.3793 27.3346 37.3078 27.6414 37.1781 27.925C37.0484 28.2087 36.8632 28.4635 36.6333 28.6743Z" fill="white"/>
</svg>
